<svg width="38" height="38" viewBox="0 0 38 38" fill="none" xmlns="http://www.w3.org/2000/svg">
<path d="M18.7696 35.5226C18.5392 35.5226 18.3148 35.4233 18.1553 35.2308C17.8801 34.8941 17.9321 34.398 18.2687 34.1216L21.8219 31.2346C22.0641 31.0373 22.3996 31.0031 22.6807 31.1437L25.459 32.5706L27.3171 26.0867C27.4175 25.7264 27.766 25.4807 28.1404 25.5209L31.1125 25.7808L33.6073 21.6429C33.8352 21.2696 34.3207 21.1503 34.6905 21.3747C35.0626 21.6003 35.183 22.0835 34.9586 22.4567L32.2122 27.0176C32.0551 27.2762 31.7633 27.4239 31.4668 27.3944L28.6519 27.1499L26.7111 33.9314C26.6461 34.1594 26.4831 34.3437 26.2717 34.437C26.0496 34.5303 25.8098 34.5232 25.5948 34.4134L22.4196 32.7832L19.2669 35.3454C19.1204 35.4623 18.9456 35.5202 18.7696 35.5202V35.5226ZM16.8937 37.8012H3.50664C3.07312 37.8012 2.71875 37.4468 2.71875 37.0133V9.57994C2.71875 9.38621 2.79081 9.20076 2.92074 9.05546L10.7961 0.263419C10.9462 0.0968625 11.1564 0 11.382 0H30.282C30.7156 0 31.0699 0.353194 31.0699 0.787894V20.4758C31.0699 20.9093 30.7156 21.2637 30.282 21.2637C29.8485 21.2637 29.4941 20.9093 29.4941 20.4758V1.57579H11.7364L4.29454 9.88116V36.2266H16.8949C17.3284 36.2266 17.6828 36.581 17.6828 37.0145C17.6828 37.448 17.3284 37.8024 16.8949 37.8024L16.8937 37.8012ZM11.382 11.0258H4.29454C3.86102 11.0258 3.50664 10.6726 3.50664 10.2379C3.50664 9.80319 3.86102 9.45 4.29454 9.45H10.5941V1.57461C10.5941 1.13991 10.9485 0.786713 11.382 0.786713C11.8156 0.786713 12.1699 1.13991 12.1699 1.57461V10.2367C12.1699 10.6714 11.8156 11.0246 11.382 11.0246V11.0258Z" fill="url(#paint0_linear_5528_1953)"/>
<defs>
<linearGradient id="paint0_linear_5528_1953" x1="18.8952" y1="0" x2="18.8952" y2="37.8024" gradientUnits="userSpaceOnUse">
<stop stop-color="#6A1B9A"/>
<stop offset="1" stop-color="#D32F2F"/>
</linearGradient>
</defs>
</svg>
