<svg width="38" height="38" viewBox="0 0 38 38" fill="none" xmlns="http://www.w3.org/2000/svg">
<path d="M37.0133 34.6508H0.787894C0.353194 34.6508 0 34.2964 0 33.8629V3.93828C0 3.50477 0.353194 3.15039 0.787894 3.15039H37.0133C37.4468 3.15039 37.8012 3.50477 37.8012 3.93828V33.8629C37.8012 34.2964 37.4468 34.6508 37.0133 34.6508ZM1.57579 33.0762H36.2254V4.72618H1.57579V33.0762ZM36.2266 11.0258H1.57697C1.14227 11.0258 0.789075 10.6714 0.789075 10.2379C0.789075 9.80437 1.14227 9.45 1.57697 9.45H36.2266C36.6601 9.45 37.0145 9.80437 37.0145 10.2379C37.0145 10.6714 36.6601 11.0258 36.2266 11.0258ZM27.8598 30.9109C24.8181 30.9109 22.3469 28.4386 22.3469 25.3981C22.3469 22.3575 24.8181 19.8852 27.8598 19.8852C30.8991 19.8852 33.3727 22.3575 33.3727 25.3981C33.3727 28.4386 30.898 30.9109 27.8598 30.9109ZM27.8598 21.4609C25.6875 21.4609 23.9227 23.2269 23.9227 25.3981C23.9227 27.5692 25.6886 29.3352 27.8598 29.3352C30.0286 29.3352 31.7969 27.5692 31.7969 25.3981C31.7969 23.2269 30.0297 21.4609 27.8598 21.4609ZM28.3512 27.6318C28.161 27.6318 27.9696 27.5645 27.8184 27.4239L26.2438 25.978C25.9225 25.6839 25.9025 25.1854 26.1966 24.8665C26.4931 24.5464 26.9904 24.5275 27.3081 24.8204L28.3335 25.7654L34.0991 20.1155C34.4098 19.8166 34.9083 19.819 35.2131 20.1285C35.5166 20.4344 35.5119 20.9424 35.2036 21.2424L28.904 27.4133C28.7493 27.5562 28.5496 27.6318 28.3512 27.6318ZM4.72618 7.08868C4.72618 7.52338 4.37299 7.87657 3.93829 7.87657C3.50359 7.87657 3.15039 7.52338 3.15039 7.08868C3.15039 6.65398 3.50359 6.30078 3.93829 6.30078C4.37299 6.30078 4.72618 6.65398 4.72618 7.08868ZM7.87658 7.08868C7.87658 7.52338 7.52338 7.87657 7.08868 7.87657C6.65398 7.87657 6.30079 7.52338 6.30079 7.08868C6.30079 6.65398 6.65398 6.30078 7.08868 6.30078C7.52338 6.30078 7.87658 6.65398 7.87658 7.08868ZM11.0258 7.08868C11.0258 7.52338 10.6726 7.87657 10.2379 7.87657C9.80319 7.87657 9.45 7.52338 9.45 7.08868C9.45 6.65398 9.80319 6.30078 10.2379 6.30078C10.6726 6.30078 11.0258 6.65398 11.0258 7.08868Z" fill="url(#paint0_linear_5528_1936)"/>
<defs>
<linearGradient id="paint0_linear_5528_1936" x1="18.9006" y1="3.15039" x2="18.9006" y2="34.6508" gradientUnits="userSpaceOnUse">
<stop stop-color="#6A1B9A"/>
<stop offset="1" stop-color="#D32F2F"/>
</linearGradient>
</defs>
</svg>
