<svg width="38" height="38" viewBox="0 0 38 38" fill="none" xmlns="http://www.w3.org/2000/svg">
<path d="M9.84298 11.4214H1.96758C1.53288 11.4214 1.17969 11.067 1.17969 10.6335V2.75813C1.17969 2.32343 1.53288 1.97024 1.96758 1.97024H9.84298C10.2777 1.97024 10.6309 2.32343 10.6309 2.75813V10.6335C10.6309 11.067 10.2777 11.4214 9.84298 11.4214ZM2.75547 9.84681H9.05508V3.54721H2.75547V9.84681ZM5.90587 9.05892C5.84799 9.05892 5.78774 9.05301 5.73104 9.03648C5.49952 8.9845 5.30461 8.82858 5.1983 8.61595L3.68984 5.53171C3.49966 5.14071 3.66031 4.67058 4.05013 4.47803C4.4423 4.28549 4.91126 4.44968 5.1038 4.83831L6.18464 7.04607L13.4269 1.34772C13.7683 1.07958 14.2644 1.13864 14.5325 1.48002C14.8007 1.82376 14.7416 2.31635 14.4002 2.58567L6.39254 8.88528C6.25198 8.99868 6.08069 9.05656 5.90587 9.05656V9.05892ZM9.84298 24.0218H1.96758C1.53288 24.0218 1.17969 23.6674 1.17969 23.2339V15.3585C1.17969 14.9238 1.53288 14.5706 1.96758 14.5706H9.84298C10.2777 14.5706 10.6309 14.9238 10.6309 15.3585V23.2339C10.6309 23.6674 10.2777 24.0218 9.84298 24.0218ZM2.75547 22.446H9.05508V16.1464H2.75547V22.446ZM5.90587 21.6593C5.84799 21.6593 5.78774 21.6534 5.73104 21.6369C5.49952 21.5849 5.30461 21.429 5.1983 21.2152L3.68984 18.1309C3.49966 17.7399 3.66031 17.2698 4.05013 17.0772C4.4423 16.8847 4.91126 17.0477 5.1038 17.4375L6.18464 19.6453L13.4269 13.9469C13.7683 13.6788 14.2644 13.739 14.5325 14.0792C14.8007 14.423 14.7416 14.9156 14.4002 15.1849L6.39254 21.4845C6.25198 21.5991 6.08069 21.6593 5.90587 21.6593ZM9.84298 36.621H1.96758C1.53288 36.621 1.17969 36.2667 1.17969 35.8331V27.9577C1.17969 27.523 1.53288 27.1698 1.96758 27.1698H9.84298C10.2777 27.1698 10.6309 27.523 10.6309 27.9577V35.8331C10.6309 36.2667 10.2777 36.621 9.84298 36.621ZM2.75547 35.0464H9.05508V28.7468H2.75547V35.0464ZM35.8305 30.3214H18.5051C18.0704 30.3214 17.7172 29.967 17.7172 29.5335C17.7172 29.0988 18.0704 28.7456 18.5051 28.7456H35.8305C36.264 28.7456 36.6184 29.0988 36.6184 29.5335C36.6184 29.967 36.264 30.3214 35.8305 30.3214ZM35.8305 35.0464H18.5051C18.0704 35.0464 17.7172 34.692 17.7172 34.2585C17.7172 33.8238 18.0704 33.4706 18.5051 33.4706H35.8305C36.264 33.4706 36.6184 33.8238 36.6184 34.2585C36.6184 34.692 36.264 35.0464 35.8305 35.0464ZM35.8305 17.721H18.5051C18.0704 17.721 17.7172 17.3666 17.7172 16.9331C17.7172 16.4984 18.0704 16.1452 18.5051 16.1452H35.8305C36.264 16.1452 36.6184 16.4984 36.6184 16.9331C36.6184 17.3666 36.264 17.721 35.8305 17.721ZM35.8305 22.446H18.5051C18.0704 22.446 17.7172 22.0917 17.7172 21.6581C17.7172 21.2234 18.0704 20.8702 18.5051 20.8702H35.8305C36.264 20.8702 36.6184 21.2234 36.6184 21.6581C36.6184 22.0917 36.264 22.446 35.8305 22.446ZM35.8305 5.12181H18.5051C18.0704 5.12181 17.7172 4.76744 17.7172 4.33392C17.7172 3.89922 18.0704 3.54603 18.5051 3.54603H35.8305C36.264 3.54603 36.6184 3.89922 36.6184 4.33392C36.6184 4.76744 36.264 5.12181 35.8305 5.12181ZM35.8305 9.84681H18.5051C18.0704 9.84681 17.7172 9.49244 17.7172 9.05892C17.7172 8.62422 18.0704 8.27103 18.5051 8.27103H35.8305C36.264 8.27103 36.6184 8.62422 36.6184 9.05892C36.6184 9.49244 36.264 9.84681 35.8305 9.84681Z" fill="url(#paint0_linear_5528_1944)"/>
<defs>
<linearGradient id="paint0_linear_5528_1944" x1="18.899" y1="1.17969" x2="18.899" y2="36.621" gradientUnits="userSpaceOnUse">
<stop stop-color="#6A1B9A"/>
<stop offset="1" stop-color="#D32F2F"/>
</linearGradient>
</defs>
</svg>
