<svg width="722" height="126" viewBox="0 0 722 126" fill="none" xmlns="http://www.w3.org/2000/svg">
<path d="M124.872 5.55974H118.025H91.6849H81.5884L74.1684 12.1364L37.5275 44.6131H6.84714V12.1364H29.962C31.3018 15.5017 34.688 17.8994 38.6593 17.8994C43.8005 17.8994 47.977 13.8878 47.977 8.94972C47.977 4.01162 43.8005 0 38.6593 0C34.7675 0 31.4326 2.30048 30.0395 5.55974H6.84714H0V12.1364V44.6131V51.1898H6.84714H30.1075H40.204L47.624 44.6131L84.2648 12.1364H117.594H118.025V20.7035V44.6131H91.0496H80.9532L73.5332 51.1898L45.1987 76.3041L38.3515 82.3731V91.3222V118.437V125.014H45.1987H79.0558H85.903V118.437V94.1356C89.2434 92.7744 91.5899 89.5939 91.5899 85.8927C91.5899 80.9546 87.4133 76.943 82.2722 76.943C77.131 76.943 72.9544 80.9546 72.9544 85.8927C72.9544 89.7437 75.4991 93.0213 79.0558 94.2821V118.437H45.1987V85.2533L83.6296 51.1898H118.025H124.872V44.6131V14.6345V12.1364V5.68555L125.014 5.55974H124.872ZM38.6595 3.66123C41.6949 3.66123 44.1655 6.03424 44.1655 8.94972C44.1655 11.8652 41.6949 14.2382 38.6595 14.2382C35.6241 14.2382 33.1535 11.8652 33.1535 8.94972C33.1535 6.03424 35.6241 3.66123 38.6595 3.66123ZM76.7664 85.8925C76.7664 82.977 79.237 80.604 82.2723 80.604C85.3077 80.604 87.7783 82.977 87.7783 85.8925C87.7783 88.808 85.3077 91.181 82.2723 91.181C79.237 91.181 76.7664 88.808 76.7664 85.8925Z" fill="url(#paint0_linear_795_99567)"/>
<path d="M250.929 15.4609V33.8237H225.999V109.553H203.079V33.8237H178.148V15.4609H250.929ZM321.14 109.553L301.571 74.0342H296.076V109.553H273.156V15.4609H311.624C319.039 15.4609 325.339 16.7543 330.523 19.3479C335.794 21.9381 339.724 25.5135 342.318 30.0707C344.908 34.5374 346.205 39.5403 346.205 45.0827C346.205 51.3354 344.415 56.9213 340.843 61.837C337.359 66.7494 332.175 70.2343 325.295 72.2918L347.009 109.553H321.14ZM296.076 57.8159H310.284C314.482 57.8159 317.608 56.7872 319.666 54.7331C321.81 52.6757 322.883 49.7739 322.883 46.0209C322.883 42.4455 321.81 39.6307 319.666 37.5766C317.608 35.5192 314.482 34.4939 310.284 34.4939H296.076V57.8159ZM394.236 15.4609V109.553H371.316V15.4609H394.236ZM480.139 92.9332H445.022L439.393 109.553H415.4L449.445 15.4609H475.984L510.029 109.553H485.769L480.139 92.9332ZM474.242 75.2405L462.581 40.7935L451.054 75.2405H474.242ZM588.751 109.553L569.584 80.7359L552.696 109.553H526.693L556.851 61.703L526.023 15.4609H552.696L571.595 43.8763L588.215 15.4609H614.218L584.328 62.9092L615.424 109.553H588.751ZM695.286 109.553L676.119 80.7359L659.23 109.553H633.227L663.385 61.703L632.557 15.4609H659.23L678.129 43.8763L694.75 15.4609H720.752L690.862 62.9092L721.959 109.553H695.286Z" fill="url(#paint1_linear_795_99567)"/>
<defs>
<linearGradient id="paint0_linear_795_99567" x1="63.3974" y1="-2.09263" x2="60.3312" y2="103.255" gradientUnits="userSpaceOnUse">
<stop stop-color="#F0389B"/>
<stop offset="1" stop-color="#6409C0"/>
</linearGradient>
<linearGradient id="paint1_linear_795_99567" x1="450.054" y1="15.4609" x2="450.054" y2="109.553" gradientUnits="userSpaceOnUse">
<stop stop-color="#F0389B"/>
<stop offset="1" stop-color="#6409C0"/>
</linearGradient>
</defs>
</svg>
